<?xml version="1.0" encoding="UTF-8" standalone="no"?>
<!DOCTYPE svg PUBLIC "-//W3C//DTD SVG 1.1//EN" "http://www.w3.org/Graphics/SVG/1.1/DTD/svg11.dtd">
<svg version="1.1" xmlns="http://www.w3.org/2000/svg" xmlns:xlink="http://www.w3.org/1999/xlink" preserveAspectRatio="xMidYMid meet" viewBox="0 0 370 486" width="370" height="486"><defs><path d="M291.22 195.91L291.6 195.95L291.98 196L292.36 196.06L292.74 196.14L293.11 196.23L293.48 196.34L293.84 196.46L294.2 196.59L294.56 196.74L294.91 196.9L295.25 197.08L295.59 197.27L295.92 197.47L296.24 197.68L296.56 197.91L296.86 198.15L297.16 198.41L297.45 198.68L297.73 198.95L298 199.25L298.26 199.55L298.51 199.87L298.74 200.2L298.97 200.54L299.18 200.89L369.18 322.13L369.38 322.5L369.56 322.86L369.73 323.23L369.88 323.6L370.01 323.98L370.13 324.36L370.24 324.74L370.32 325.13L370.39 325.51L370.45 325.9L370.49 326.28L370.51 326.67L370.52 327.06L370.52 327.45L370.5 327.83L370.47 328.21L370.42 328.59L370.35 328.97L370.27 329.35L370.18 329.72L370.08 330.09L369.96 330.46L369.82 330.82L369.67 331.17L369.51 331.52L369.34 331.86L369.15 332.2L368.94 332.53L368.73 332.85L368.5 333.17L368.26 333.47L368.01 333.77L367.74 334.06L367.46 334.34L367.17 334.61L366.86 334.87L366.55 335.12L366.22 335.36L365.88 335.58L365.52 335.79L105.72 485.79L105.35 485.99L104.99 486.18L104.62 486.34L104.24 486.49L103.87 486.63L103.49 486.74L103.11 486.85L102.72 486.93L102.34 487L101.95 487.06L101.56 487.1L101.18 487.13L100.79 487.14L100.4 487.13L100.02 487.11L99.64 487.08L99.25 487.03L98.88 486.96L98.5 486.89L98.13 486.79L97.76 486.69L97.39 486.57L97.03 486.43L96.68 486.28L96.33 486.12L95.99 485.95L95.65 485.76L95.32 485.56L95 485.34L94.68 485.11L94.37 484.87L94.08 484.62L93.79 484.35L93.51 484.07L93.24 483.78L92.98 483.47L92.73 483.16L92.49 482.83L92.27 482.49L92.05 482.13L22.05 360.89L21.86 360.53L21.67 360.16L21.51 359.79L21.36 359.42L21.22 359.04L21.11 358.66L21 358.28L20.92 357.9L20.84 357.51L20.79 357.13L20.75 356.74L20.72 356.35L20.71 355.97L20.72 355.58L20.74 355.19L20.77 354.81L20.82 354.43L20.89 354.05L20.96 353.67L21.06 353.3L21.16 352.93L21.28 352.57L21.42 352.21L21.57 351.85L21.73 351.5L21.9 351.16L22.09 350.82L22.29 350.49L22.51 350.17L22.74 349.86L22.98 349.55L23.23 349.25L23.5 348.96L23.78 348.68L24.07 348.41L24.38 348.15L24.69 347.91L25.02 347.67L25.36 347.44L25.72 347.23L285.52 197.23L285.88 197.03L286.25 196.85L286.62 196.68L286.99 196.53L287.37 196.4L287.75 196.28L288.13 196.18L288.52 196.09L288.9 196.02L289.29 195.96L289.67 195.92L290.06 195.9L290.45 195.89L290.83 195.89L291.22 195.91ZM270.5 0.03L270.88 0.06L271.27 0.11L271.64 0.18L272.02 0.25L272.39 0.35L272.76 0.45L273.13 0.57L273.49 0.71L273.84 0.86L274.19 1.02L274.53 1.19L274.87 1.38L275.2 1.58L275.52 1.8L275.84 2.03L276.15 2.27L276.44 2.52L276.73 2.79L277.01 3.07L277.28 3.36L277.54 3.67L277.79 3.98L278.03 4.31L278.25 4.65L278.47 5.01L348.47 126.25L348.66 126.61L348.85 126.98L349.01 127.35L349.16 127.72L349.3 128.1L349.41 128.48L349.52 128.86L349.6 129.24L349.68 129.63L349.73 130.01L349.77 130.4L349.8 130.79L349.81 131.17L349.8 131.56L349.78 131.95L349.75 132.33L349.7 132.71L349.63 133.09L349.56 133.47L349.46 133.84L349.36 134.21L349.24 134.57L349.1 134.93L348.95 135.29L348.79 135.64L348.62 135.98L348.43 136.32L348.23 136.65L348.01 136.97L347.78 137.28L347.54 137.59L347.29 137.89L347.02 138.18L346.74 138.46L346.45 138.73L346.14 138.99L345.83 139.23L345.5 139.47L345.16 139.7L344.8 139.91L85 289.91L84.64 290.11L84.27 290.29L83.9 290.46L83.53 290.61L83.15 290.74L82.77 290.86L82.39 290.96L82 291.05L81.62 291.12L81.23 291.18L80.85 291.22L80.46 291.24L80.07 291.25L79.69 291.25L79.3 291.23L78.92 291.19L78.54 291.14L78.16 291.08L77.78 291L77.41 290.91L77.04 290.8L76.68 290.68L76.32 290.55L75.96 290.4L75.61 290.24L75.27 290.06L74.93 289.87L74.6 289.67L74.28 289.46L73.96 289.23L73.66 288.99L73.36 288.73L73.07 288.46L72.79 288.19L72.52 287.89L72.26 287.59L72.01 287.27L71.78 286.94L71.55 286.6L71.34 286.25L1.34 165.01L1.14 164.64L0.96 164.28L0.79 163.91L0.64 163.54L0.51 163.16L0.39 162.78L0.28 162.4L0.2 162.01L0.13 161.63L0.07 161.24L0.03 160.86L0.01 160.47L0 160.08L0 159.69L0.02 159.31L0.05 158.93L0.1 158.55L0.17 158.17L0.25 157.79L0.34 157.42L0.44 157.05L0.56 156.68L0.7 156.32L0.85 155.97L1.01 155.62L1.18 155.28L1.37 154.94L1.58 154.61L1.79 154.29L2.02 153.97L2.26 153.67L2.51 153.37L2.78 153.08L3.06 152.8L3.35 152.53L3.66 152.27L3.97 152.02L4.3 151.78L4.64 151.56L5 151.35L264.8 1.35L265.17 1.15L265.53 0.96L265.9 0.8L266.28 0.65L266.65 0.51L267.03 0.4L267.41 0.29L267.8 0.21L268.18 0.14L268.57 0.08L268.96 0.04L269.34 0.01L269.73 0L270.12 0.01L270.5 0.03Z" id="e2mu65duZE"></path></defs><g><g><g><use xlink:href="#e2mu65duZE" opacity="1" fill="#24292e" fill-opacity="1"></use><g><use xlink:href="#e2mu65duZE" opacity="1" fill-opacity="0" stroke="#04141d" stroke-width="0" stroke-opacity="1"></use></g></g></g></g></svg>